<mxfile host="app.diagrams.net" modified="2023-03-24T09:24:01.239Z" agent="5.0 (Windows NT 10.0; Win64; x64) AppleWebKit/537.36 (KHTML, like Gecko) Chrome/111.0.0.0 Safari/537.36" etag="jvWjCVnVBboPlu0TXf60" version="21.0.6" type="github">
  <diagram name="第 1 页" id="dahF5gMYQcZv1c5bkJaP">
    <mxGraphModel dx="1877" dy="1718" grid="1" gridSize="10" guides="1" tooltips="1" connect="1" arrows="1" fold="1" page="1" pageScale="1" pageWidth="827" pageHeight="1169" math="0" shadow="0">
      <root>
        <mxCell id="0" />
        <mxCell id="1" parent="0" />
        <mxCell id="i39ZQGhT7pA9CPa-rsTw-22" style="edgeStyle=orthogonalEdgeStyle;rounded=0;orthogonalLoop=1;jettySize=auto;html=1;" edge="1" parent="1" source="i39ZQGhT7pA9CPa-rsTw-1" target="i39ZQGhT7pA9CPa-rsTw-13">
          <mxGeometry relative="1" as="geometry" />
        </mxCell>
        <mxCell id="i39ZQGhT7pA9CPa-rsTw-1" value="la_add_prefix_to_router_interface" style="rounded=0;whiteSpace=wrap;html=1;fontFamily=Verdana;" vertex="1" parent="1">
          <mxGeometry x="140" y="405" width="260" height="60" as="geometry" />
        </mxCell>
        <mxCell id="i39ZQGhT7pA9CPa-rsTw-20" style="edgeStyle=orthogonalEdgeStyle;rounded=0;orthogonalLoop=1;jettySize=auto;html=1;" edge="1" parent="1" source="i39ZQGhT7pA9CPa-rsTw-2" target="i39ZQGhT7pA9CPa-rsTw-1">
          <mxGeometry relative="1" as="geometry" />
        </mxCell>
        <mxCell id="i39ZQGhT7pA9CPa-rsTw-2" value="route_entry_create_or_prepare" style="rounded=0;whiteSpace=wrap;html=1;fontFamily=Verdana;" vertex="1" parent="1">
          <mxGeometry x="-20" y="240" width="260" height="60" as="geometry" />
        </mxCell>
        <mxCell id="i39ZQGhT7pA9CPa-rsTw-21" style="edgeStyle=orthogonalEdgeStyle;rounded=0;orthogonalLoop=1;jettySize=auto;html=1;" edge="1" parent="1" source="i39ZQGhT7pA9CPa-rsTw-3" target="i39ZQGhT7pA9CPa-rsTw-1">
          <mxGeometry relative="1" as="geometry" />
        </mxCell>
        <mxCell id="i39ZQGhT7pA9CPa-rsTw-3" value="route_update_nh_change_to_rif" style="rounded=0;whiteSpace=wrap;html=1;fontFamily=Verdana;" vertex="1" parent="1">
          <mxGeometry x="350" y="240" width="260" height="60" as="geometry" />
        </mxCell>
        <mxCell id="i39ZQGhT7pA9CPa-rsTw-16" style="edgeStyle=orthogonalEdgeStyle;rounded=0;orthogonalLoop=1;jettySize=auto;html=1;" edge="1" parent="1" source="i39ZQGhT7pA9CPa-rsTw-4" target="i39ZQGhT7pA9CPa-rsTw-2">
          <mxGeometry relative="1" as="geometry" />
        </mxCell>
        <mxCell id="i39ZQGhT7pA9CPa-rsTw-4" value="create_route_entries_internal" style="rounded=0;whiteSpace=wrap;html=1;fontFamily=Verdana;" vertex="1" parent="1">
          <mxGeometry x="-20" y="120" width="260" height="60" as="geometry" />
        </mxCell>
        <mxCell id="i39ZQGhT7pA9CPa-rsTw-19" style="edgeStyle=orthogonalEdgeStyle;rounded=0;orthogonalLoop=1;jettySize=auto;html=1;" edge="1" parent="1" source="i39ZQGhT7pA9CPa-rsTw-5" target="i39ZQGhT7pA9CPa-rsTw-3">
          <mxGeometry relative="1" as="geometry" />
        </mxCell>
        <mxCell id="i39ZQGhT7pA9CPa-rsTw-5" value="set_route_entries_attribute_internal" style="rounded=0;whiteSpace=wrap;html=1;fontFamily=Verdana;" vertex="1" parent="1">
          <mxGeometry x="360" y="130" width="260" height="60" as="geometry" />
        </mxCell>
        <mxCell id="i39ZQGhT7pA9CPa-rsTw-14" style="edgeStyle=orthogonalEdgeStyle;rounded=0;orthogonalLoop=1;jettySize=auto;html=1;" edge="1" parent="1" source="i39ZQGhT7pA9CPa-rsTw-6" target="i39ZQGhT7pA9CPa-rsTw-4">
          <mxGeometry relative="1" as="geometry" />
        </mxCell>
        <mxCell id="i39ZQGhT7pA9CPa-rsTw-6" value="create_route_entry" style="rounded=0;whiteSpace=wrap;html=1;fontFamily=Verdana;" vertex="1" parent="1">
          <mxGeometry x="-130" y="-30" width="160" height="60" as="geometry" />
        </mxCell>
        <mxCell id="i39ZQGhT7pA9CPa-rsTw-15" style="edgeStyle=orthogonalEdgeStyle;rounded=0;orthogonalLoop=1;jettySize=auto;html=1;" edge="1" parent="1" source="i39ZQGhT7pA9CPa-rsTw-7" target="i39ZQGhT7pA9CPa-rsTw-4">
          <mxGeometry relative="1" as="geometry" />
        </mxCell>
        <mxCell id="i39ZQGhT7pA9CPa-rsTw-7" value="create_route_entries" style="rounded=0;whiteSpace=wrap;html=1;fontFamily=Verdana;" vertex="1" parent="1">
          <mxGeometry x="90" y="-30" width="174" height="60" as="geometry" />
        </mxCell>
        <mxCell id="i39ZQGhT7pA9CPa-rsTw-17" style="edgeStyle=orthogonalEdgeStyle;rounded=0;orthogonalLoop=1;jettySize=auto;html=1;" edge="1" parent="1" source="i39ZQGhT7pA9CPa-rsTw-8" target="i39ZQGhT7pA9CPa-rsTw-5">
          <mxGeometry relative="1" as="geometry" />
        </mxCell>
        <mxCell id="i39ZQGhT7pA9CPa-rsTw-8" value="set_route_entry_attribute" style="rounded=0;whiteSpace=wrap;html=1;fontFamily=Verdana;" vertex="1" parent="1">
          <mxGeometry x="220" y="-240" width="190" height="60" as="geometry" />
        </mxCell>
        <mxCell id="i39ZQGhT7pA9CPa-rsTw-18" style="edgeStyle=orthogonalEdgeStyle;rounded=0;orthogonalLoop=1;jettySize=auto;html=1;" edge="1" parent="1" source="i39ZQGhT7pA9CPa-rsTw-9" target="i39ZQGhT7pA9CPa-rsTw-5">
          <mxGeometry relative="1" as="geometry" />
        </mxCell>
        <mxCell id="i39ZQGhT7pA9CPa-rsTw-9" value="set_route_entries_attribute" style="rounded=0;whiteSpace=wrap;html=1;fontFamily=Verdana;" vertex="1" parent="1">
          <mxGeometry x="520" y="-240" width="190" height="60" as="geometry" />
        </mxCell>
        <mxCell id="i39ZQGhT7pA9CPa-rsTw-11" value="la_vrf_port_common_pacgbakpg::add_ip_subnet" style="rounded=0;whiteSpace=wrap;html=1;fontFamily=Verdana;" vertex="1" parent="1">
          <mxGeometry x="110" y="650" width="380" height="60" as="geometry" />
        </mxCell>
        <mxCell id="i39ZQGhT7pA9CPa-rsTw-12" value="la_add_prefix_to_router_interface" style="rounded=0;whiteSpace=wrap;html=1;fontFamily=Verdana;" vertex="1" parent="1">
          <mxGeometry x="140" y="525" width="260" height="60" as="geometry" />
        </mxCell>
        <mxCell id="i39ZQGhT7pA9CPa-rsTw-23" style="edgeStyle=orthogonalEdgeStyle;rounded=0;orthogonalLoop=1;jettySize=auto;html=1;" edge="1" parent="1" source="i39ZQGhT7pA9CPa-rsTw-13" target="i39ZQGhT7pA9CPa-rsTw-11">
          <mxGeometry relative="1" as="geometry" />
        </mxCell>
        <mxCell id="i39ZQGhT7pA9CPa-rsTw-13" value="l3ac-&amp;gt;add_ipv4_subnet" style="rounded=0;whiteSpace=wrap;html=1;fontFamily=Verdana;" vertex="1" parent="1">
          <mxGeometry x="140" y="525" width="260" height="60" as="geometry" />
        </mxCell>
      </root>
    </mxGraphModel>
  </diagram>
</mxfile>
